<?xml version="1.0" standalone="no"?>
<!DOCTYPE svg PUBLIC "-//W3C//DTD SVG 20010904//EN"
 "http://www.w3.org/TR/2001/REC-SVG-20010904/DTD/svg10.dtd">
<svg version="1.0" xmlns="http://www.w3.org/2000/svg"
 width="350.000000pt" height="118.000000pt" viewBox="0 0 350.000000 118.000000"
 preserveAspectRatio="xMidYMid meet">

<g transform="translate(0.000000,118.000000) scale(0.100000,-0.100000)"
fill="#000000" stroke="none">
<path d="M1780 1085 c-9 -11 -10 -19 -3 -26 19 -19 3 -49 -26 -49 -15 0 -43
-12 -62 -26 -27 -20 -42 -24 -74 -20 l-40 5 34 -15 c31 -14 36 -13 82 11 53
27 74 31 84 14 11 -16 5 -313 -5 -323 -6 -6 -10 -19 -10 -29 0 -10 -9 -21 -20
-24 -11 -3 -20 -9 -20 -14 0 -5 -7 -9 -15 -9 -9 0 -18 -7 -21 -15 -5 -12 -29
-15 -126 -15 -77 0 -117 -4 -113 -10 8 -14 692 -14 700 0 4 6 -36 10 -113 10
-97 0 -121 3 -126 15 -3 8 -12 15 -21 15 -8 0 -15 4 -15 9 0 5 -9 11 -20 14
-12 3 -20 14 -20 25 0 12 -4 24 -10 27 -6 4 -10 70 -10 166 0 186 1 187 86
146 51 -25 57 -26 87 -13 l32 15 -40 -5 c-32 -4 -47 0 -74 20 -19 14 -48 26
-64 26 -28 0 -29 2 -24 34 7 42 -13 65 -33 41z"/>
<path d="M1552 955 c1 -11 -9 -53 -21 -93 -12 -41 -20 -76 -18 -78 2 -3 12 23
21 56 9 33 19 60 22 60 2 0 4 -45 4 -100 l0 -100 -35 0 c-33 0 -34 1 -25 26 6
14 10 31 9 37 0 7 -7 -6 -15 -28 -19 -51 -14 -62 33 -74 43 -12 111 1 119 22
2 7 -9 50 -25 97 -16 47 -30 80 -30 74 -1 -6 10 -43 23 -82 l25 -72 -35 0 -35
0 2 118 c1 71 -2 126 -9 138 -11 19 -11 19 -10 -1z"/>
<path d="M1986 833 c-26 -78 -45 -147 -41 -152 9 -16 83 -33 108 -25 40 12 69
35 59 47 -5 7 -15 34 -22 60 -7 26 -15 46 -17 43 -2 -2 2 -27 11 -55 l15 -51
-30 0 c-16 0 -32 6 -35 13 -3 8 -4 54 -2 103 l3 89 14 -43 c8 -23 16 -40 19
-38 2 3 -3 26 -11 53 -9 26 -17 59 -19 73 -2 17 -20 -23 -52 -117z m34 -38 l0
-95 -34 0 -34 0 31 95 c17 52 33 95 34 95 2 0 3 -43 3 -95z"/>
<path d="M1358 513 c237 -2 627 -2 865 0 237 1 43 2 -433 2 -476 0 -670 -1
-432 -2z"/>
<path d="M355 410 c3 -5 8 -10 11 -10 2 0 4 5 4 10 0 6 -5 10 -11 10 -5 0 -7
-4 -4 -10z"/>
<path d="M427 402 c-23 -25 -21 -65 3 -87 20 -18 20 -18 9 13 -8 23 -8 41 0
62 12 35 10 37 -12 12z"/>
<path d="M501 392 c8 -23 8 -41 0 -64 -11 -31 -11 -31 9 -13 11 10 20 30 20
45 0 15 -9 35 -20 45 -20 18 -20 18 -9 -13z"/>
<path d="M575 360 c0 -47 3 -60 15 -60 12 0 14 12 12 60 -5 81 -27 81 -27 0z"/>
<path d="M706 398 c-21 -29 -20 -51 2 -77 17 -22 17 -21 17 38 0 34 -1 61 -2
61 -1 0 -9 -10 -17 -22z"/>
<path d="M785 360 c0 -60 0 -61 18 -39 9 11 17 29 17 39 0 10 -8 28 -17 39
-18 22 -18 21 -18 -39z"/>
<path d="M855 360 c0 -47 3 -60 15 -60 12 0 14 12 12 60 -5 81 -27 81 -27 0z"/>
<path d="M917 399 c4 -14 0 -26 -10 -34 -14 -10 -13 -14 8 -41 13 -16 27 -26
31 -22 4 5 -1 17 -11 28 -17 19 -17 21 0 40 15 16 15 22 5 35 -18 22 -29 19
-23 -6z"/>
<path d="M1028 360 c-2 -48 0 -60 12 -60 12 0 14 12 12 60 -2 33 -7 60 -12 60
-5 0 -10 -27 -12 -60z"/>
<path d="M1205 360 c0 -47 3 -60 15 -60 12 0 15 13 15 60 0 47 -3 60 -15 60
-12 0 -15 -13 -15 -60z"/>
<path d="M1280 360 c0 -47 3 -60 15 -60 12 0 15 13 15 60 0 47 -3 60 -15 60
-12 0 -15 -13 -15 -60z"/>
<path d="M1407 406 c-4 -9 0 -28 8 -43 8 -15 15 -36 15 -45 0 -11 8 -18 19
-18 19 0 19 3 -5 58 -31 68 -30 67 -37 48z"/>
<path d="M1520 411 c0 -5 20 -31 45 -57 54 -59 62 -37 9 24 -34 40 -54 52 -54
33z"/>
<path d="M1670 360 c0 -47 3 -60 15 -60 12 0 15 13 15 60 0 47 -3 60 -15 60
-12 0 -15 -13 -15 -60z"/>
<path d="M1740 400 c14 -26 13 -73 -2 -89 -11 -11 -9 -12 8 -2 40 20 39 89 -1
105 -13 4 -14 2 -5 -14z"/>
<path d="M1820 360 c0 -41 4 -60 13 -60 8 0 12 19 12 60 0 41 -4 60 -12 60 -9
0 -13 -19 -13 -60z"/>
<path d="M1955 360 c0 -81 22 -81 27 0 2 48 0 60 -12 60 -12 0 -15 -13 -15
-60z"/>
<path d="M2145 410 c3 -5 8 -10 11 -10 2 0 4 5 4 10 0 6 -5 10 -11 10 -5 0 -7
-4 -4 -10z"/>
<path d="M2210 360 c0 -47 3 -60 15 -60 12 0 15 13 15 60 0 47 -3 60 -15 60
-12 0 -15 -13 -15 -60z"/>
<path d="M2273 389 c0 -17 5 -28 11 -26 17 5 19 44 3 50 -10 4 -14 -3 -14 -24z"/>
<path d="M2365 360 c0 -41 4 -60 13 -60 8 0 12 19 12 60 0 41 -4 60 -12 60 -9
0 -13 -19 -13 -60z"/>
<path d="M2435 410 c3 -5 8 -10 11 -10 2 0 4 5 4 10 0 6 -5 10 -11 10 -5 0 -7
-4 -4 -10z"/>
<path d="M2506 398 c-21 -29 -20 -51 2 -77 17 -22 17 -21 17 38 0 34 -1 61 -2
61 -1 0 -9 -10 -17 -22z"/>
<path d="M2591 404 c0 -11 3 -14 6 -6 3 7 2 16 -1 19 -3 4 -6 -2 -5 -13z"/>
<path d="M2655 360 c0 -41 4 -60 13 -60 8 0 12 19 12 60 0 41 -4 60 -12 60 -9
0 -13 -19 -13 -60z"/>
<path d="M2795 410 c3 -5 8 -10 11 -10 2 0 4 5 4 10 0 6 -5 10 -11 10 -5 0 -7
-4 -4 -10z"/>
<path d="M2888 360 c-2 -43 1 -60 10 -60 8 0 12 19 12 60 0 78 -17 78 -22 0z"/>
<path d="M2935 410 c3 -5 8 -10 11 -10 2 0 4 5 4 10 0 6 -5 10 -11 10 -5 0 -7
-4 -4 -10z"/>
<path d="M2995 360 c0 -41 4 -60 13 -60 8 0 12 19 12 60 0 41 -4 60 -12 60 -9
0 -13 -19 -13 -60z"/>
<path d="M3135 360 c0 -41 4 -60 13 -60 8 0 12 19 12 60 0 41 -4 60 -12 60 -9
0 -13 -19 -13 -60z"/>
<path d="M3198 395 c3 -17 -1 -27 -12 -31 -14 -6 -14 -9 1 -35 10 -16 24 -29
31 -29 12 0 11 5 -2 25 -13 20 -14 29 -5 44 13 19 6 51 -9 51 -5 0 -7 -11 -4
-25z"/>
<path d="M295 400 c-9 -15 4 -35 36 -53 21 -11 29 -22 25 -33 -3 -8 -2 -12 4
-9 13 8 13 55 0 55 -6 0 -22 11 -35 24 -14 14 -27 21 -30 16z"/>
<path d="M2085 400 c-9 -15 4 -35 36 -53 21 -11 29 -22 25 -33 -3 -8 -2 -12 4
-9 13 8 13 55 0 55 -6 0 -22 11 -35 24 -14 14 -27 21 -30 16z"/>
<path d="M2735 400 c-9 -15 4 -35 36 -53 21 -11 29 -22 25 -33 -3 -8 -2 -12 4
-9 13 8 13 55 0 55 -6 0 -22 11 -35 24 -14 14 -27 21 -30 16z"/>
<path d="M632 360 c0 -14 2 -19 5 -12 2 6 2 18 0 25 -3 6 -5 1 -5 -13z"/>
<path d="M3052 360 c0 -14 2 -19 5 -12 2 6 2 18 0 25 -3 6 -5 1 -5 -13z"/>
<path d="M2250 355 c0 -15 34 -55 47 -55 11 0 9 7 -7 30 -19 27 -40 40 -40 25z"/>
<path d="M2578 325 c2 -14 8 -25 12 -25 4 0 10 11 12 25 4 19 1 25 -12 25 -13
0 -16 -6 -12 -25z"/>
<path d="M290 310 c0 -5 5 -10 11 -10 5 0 7 5 4 10 -3 6 -8 10 -11 10 -2 0 -4
-4 -4 -10z"/>
<path d="M1895 310 c-3 -5 -1 -10 4 -10 6 0 11 5 11 10 0 6 -2 10 -4 10 -3 0
-8 -4 -11 -10z"/>
<path d="M2080 310 c0 -5 5 -10 11 -10 5 0 7 5 4 10 -3 6 -8 10 -11 10 -2 0
-4 -4 -4 -10z"/>
<path d="M2730 310 c0 -5 5 -10 11 -10 5 0 7 5 4 10 -3 6 -8 10 -11 10 -2 0
-4 -4 -4 -10z"/>
<path d="M3075 310 c-3 -5 -1 -10 4 -10 6 0 11 5 11 10 0 6 -2 10 -4 10 -3 0
-8 -4 -11 -10z"/>
<path d="M305 230 c9 -14 2945 -14 2945 0 0 7 -499 10 -1476 10 -981 0 -1473
-3 -1469 -10z"/>
<path d="M305 149 c-4 -6 -5 -12 -2 -15 2 -3 7 2 10 11 7 17 1 20 -8 4z"/>
<path d="M420 143 c12 -18 12 -24 -1 -40 -13 -16 -13 -17 4 -4 21 17 22 35 0
52 -15 13 -15 12 -3 -8z"/>
<path d="M461 123 c1 -21 3 -30 6 -21 2 9 12 19 21 21 15 4 15 5 0 6 -10 0
-18 5 -18 10 0 5 8 12 18 14 13 4 11 5 -5 6 -20 1 -23 -4 -22 -36z"/>
<path d="M537 153 c-9 -9 -9 -51 1 -56 4 -3 7 10 7 29 0 19 0 34 -1 34 0 0 -4
-3 -7 -7z"/>
<path d="M628 153 c6 -2 18 -2 25 0 6 3 1 5 -13 5 -14 0 -19 -2 -12 -5z"/>
<path d="M697 152 c6 -4 13 -21 16 -37 l4 -30 2 32 c0 17 7 34 14 36 6 3 -1 6
-18 6 -16 0 -25 -3 -18 -7z"/>
<path d="M1142 125 c0 -22 2 -32 5 -22 2 9 13 17 23 17 10 0 21 -8 23 -17 3
-10 5 0 5 22 0 22 -2 32 -5 23 -2 -10 -13 -18 -23 -18 -10 0 -21 8 -23 18 -3
9 -5 -1 -5 -23z"/>
<path d="M1230 151 c0 -5 7 -15 17 -22 15 -13 15 -12 4 9 -12 23 -21 28 -21
13z"/>
<path d="M1268 130 c-3 -17 -1 -33 4 -36 4 -3 8 11 8 30 0 44 -6 47 -12 6z"/>
<path d="M1310 125 c0 -30 3 -35 23 -34 16 1 18 2 5 6 -21 5 -23 19 -5 26 10
4 10 6 0 6 -19 1 -16 19 5 24 13 4 11 5 -5 6 -20 1 -23 -4 -23 -34z"/>
<path d="M1442 128 c-2 -34 1 -38 21 -37 15 1 17 3 5 6 -10 2 -18 17 -21 36
-4 31 -4 31 -5 -5z"/>
<path d="M1740 151 c17 -5 21 -9 12 -14 -6 -5 -17 -17 -22 -28 -9 -17 -7 -19
17 -18 17 1 21 3 11 6 -22 6 -23 17 -3 33 23 19 18 30 -12 29 l-28 -1 25 -7z"/>
<path d="M1839 128 c-3 -22 -1 -34 4 -29 5 5 7 21 5 37 -3 27 -4 26 -9 -8z"/>
<path d="M1925 149 c-4 -6 -5 -12 -2 -15 2 -3 7 2 10 11 7 17 1 20 -8 4z"/>
<path d="M1960 125 c0 -30 3 -35 23 -34 16 1 18 2 5 6 -10 2 -18 8 -18 13 0 5
8 11 18 13 16 4 16 5 0 6 -10 0 -18 5 -18 10 0 5 8 12 18 14 13 4 11 5 -5 6
-20 1 -23 -4 -23 -34z"/>
<path d="M2031 123 c1 -21 3 -30 6 -21 2 9 12 19 21 21 15 4 15 5 0 6 -10 0
-18 6 -18 12 0 6 9 9 20 6 11 -3 18 -1 14 4 -3 5 -14 9 -25 9 -16 0 -19 -7
-18 -37z"/>
<path d="M2190 150 c0 -5 5 -10 10 -10 6 0 10 5 10 10 0 6 -4 10 -10 10 -5 0
-10 -4 -10 -10z"/>
<path d="M2256 151 c-6 -9 7 -22 34 -35 8 -4 6 0 -5 9 -11 9 -19 21 -17 26 3
12 -5 12 -12 0z"/>
<path d="M2757 153 c-9 -9 -9 -51 1 -56 4 -3 7 10 7 29 0 19 0 34 -1 34 0 0
-4 -3 -7 -7z"/>
<path d="M2832 135 c0 -16 2 -22 5 -12 2 9 2 23 0 30 -3 6 -5 -1 -5 -18z"/>
<path d="M2882 135 c0 -16 2 -22 5 -12 2 9 2 23 0 30 -3 6 -5 -1 -5 -18z"/>
<path d="M2920 126 c0 -20 2 -36 4 -36 8 0 12 61 4 66 -4 3 -8 -11 -8 -30z"/>
<path d="M3077 152 c6 -4 13 -21 16 -37 l4 -30 2 32 c0 17 7 34 14 36 6 3 -1
6 -18 6 -16 0 -25 -3 -18 -7z"/>
<path d="M3153 125 c0 -22 2 -30 4 -17 2 12 2 30 0 40 -3 9 -5 -1 -4 -23z"/>
<path d="M840 135 c-15 -17 -5 -35 20 -35 22 0 33 23 17 39 -15 15 -22 14 -37
-4z"/>
<path d="M1577 143 c-24 -23 12 -55 38 -33 12 10 13 16 4 26 -12 15 -31 18
-42 7z"/>
<path d="M1880 145 c0 -5 5 -17 10 -25 5 -8 10 -10 10 -5 0 6 -5 17 -10 25 -5
8 -10 11 -10 5z"/>
<path d="M2330 142 c0 -8 9 -16 21 -19 12 -4 18 -11 15 -20 -3 -8 -1 -11 4 -8
15 10 12 25 -7 32 -10 4 -21 11 -25 17 -5 7 -8 6 -8 -2z"/>
<path d="M2617 143 c-24 -23 12 -55 38 -33 12 10 13 16 4 26 -12 15 -31 18
-42 7z"/>
<path d="M3000 142 c0 -8 9 -16 21 -19 12 -4 18 -11 15 -20 -3 -8 -1 -11 4 -8
15 10 12 25 -7 32 -10 4 -21 11 -25 17 -5 7 -8 6 -8 -2z"/>
<path d="M581 124 c0 -11 3 -14 6 -6 3 7 2 16 -1 19 -3 4 -6 -2 -5 -13z"/>
<path d="M635 130 c-16 -7 -17 -9 -3 -9 9 -1 19 -7 21 -13 3 -7 6 -3 6 10 1
12 0 22 -1 21 -2 0 -12 -4 -23 -9z"/>
<path d="M996 129 c3 -5 12 -9 21 -9 10 0 13 -6 8 -17 -5 -14 -3 -15 6 -6 14
14 6 29 -21 36 -11 3 -18 1 -14 -4z"/>
<path d="M1061 124 c0 -11 3 -14 6 -6 3 7 2 16 -1 19 -3 4 -6 -2 -5 -13z"/>
<path d="M2441 124 c0 -11 3 -14 6 -6 3 7 2 16 -1 19 -3 4 -6 -2 -5 -13z"/>
<path d="M3181 124 c0 -11 3 -14 6 -6 3 7 2 16 -1 19 -3 4 -6 -2 -5 -13z"/>
<path d="M329 121 c8 -5 10 -14 6 -22 -6 -11 -5 -11 5 -2 14 12 6 33 -13 33
-8 0 -7 -3 2 -9z"/>
<path d="M2176 115 c-9 -26 -7 -32 5 -12 6 10 9 21 6 23 -2 3 -7 -2 -11 -11z"/>
<path d="M2210 125 c0 -5 5 -17 10 -25 5 -8 10 -10 10 -5 0 6 -5 17 -10 25 -5
8 -10 11 -10 5z"/>
<path d="M2487 110 c3 -11 7 -20 9 -20 2 0 4 9 4 20 0 11 -4 20 -9 20 -5 0 -7
-9 -4 -20z"/>
<path d="M2794 109 c0 -10 4 -19 8 -19 4 0 8 6 8 14 0 8 -4 17 -8 20 -4 2 -8
-4 -8 -15z"/>
<path d="M2950 112 c6 -13 14 -21 18 -18 3 4 -2 14 -12 24 -18 16 -18 16 -6
-6z"/>
<path d="M3227 110 c3 -11 7 -20 9 -20 2 0 4 9 4 20 0 11 -4 20 -9 20 -5 0 -7
-9 -4 -20z"/>
<path d="M1906 103 c-6 -14 -5 -15 5 -6 7 7 10 15 7 18 -3 3 -9 -2 -12 -12z"/>
<path d="M2330 100 c0 -5 5 -10 11 -10 5 0 7 5 4 10 -3 6 -8 10 -11 10 -2 0
-4 -4 -4 -10z"/>
<path d="M3000 100 c0 -5 5 -10 11 -10 5 0 7 5 4 10 -3 6 -8 10 -11 10 -2 0
-4 -4 -4 -10z"/>
<path d="M1388 93 c7 -3 16 -2 19 1 4 3 -2 6 -13 5 -11 0 -14 -3 -6 -6z"/>
<path d="M2118 93 c7 -3 16 -2 19 1 4 3 -2 6 -13 5 -11 0 -14 -3 -6 -6z"/>
</g>
</svg>
